# xmcd
#
# Track frame offsets: 
#        150
#        14060
#        26163
#        42064
#        62145
#        74651
#        92057
#        107423
#        129600
#        150342
#        170747
#        188251
#        202556
#        222475
#        243974
#        270885
#        288377
#        312226
#
# Disc length: 4646 seconds
#
# Revision: 2
# Processed by: cddbd v1.5.1PL2 Copyright (c) Steve Scherf et al.
# Submitted via: ExactAudioCopy v0.95b3
#
DISCID=f5122412
DTITLE=Various Artist - Jazz Up The Beatles
DYEAR=2005
DGENRE=Jazz
TTITLE0=Will Downing, Gerald Albright - Michelle
TTITLE1=Sissel - Here, There And Everywhere
TTITLE2=Spyro Gyra - In My Life
TTITLE3=Leo Gandelman - The Long And Winding Road
TTITLE4=Laura Fygi - Till There Was You
TTITLE5=Lizz Wright - A Taste Of Honey
TTITLE6=Matt Dusk - Please Please Me
TTITLE7=Nelson Rangell - Let It Be
TTITLE8=Dave Grusin - Yesterday
TTITLE9=Tom Scott - Fool On The Hill
TTITLE10=Ella Fitzgerald - Hey Jude
TTITLE11=Ramsey Lewis - Day Tripper
TTITLE12=Count Basie - A Hard Day's Night
TTITLE13=Ceccarelli Trio - And I Love Her
TTITLE14=McCoy Tyner - She's Leaving Home
TTITLE15=Goran Sollscher, Per Arne Glorvigen - I Want To Hold Your Han
TTITLE15=d
TTITLE16=Till Bronner - Eleanor Rigby
TTITLE17=Herbie Hancock - Norwegian Wood
EXTD=YEAR: 2005
EXTT0=
EXTT1=
EXTT2=
EXTT3=
EXTT4=
EXTT5=
EXTT6=
EXTT7=
EXTT8=
EXTT9=
EXTT10=
EXTT11=
EXTT12=
EXTT13=
EXTT14=
EXTT15=
EXTT16=
EXTT17=
PLAYORDER=
